# xmcd CD database file
#
# Track frame offsets:
#	150
#	17871
#	35696
#	56172
#	68214
#	89738
#	104575
#	121632
#	139498
#	154725
#
# Disc length: 2397 seconds
#
# Revision: 4
# Processed by: cddbd v1.4PL0 Copyright (c) Steve Scherf et al.
# Submitted via: CDex 1.50Beta7
#
DISCID=92095b0a
DTITLE=Jay Chou - Fantasy
DYEAR=2000
DGENRE=Pop
TTITLE0=Love in BC
TTITLE1=Dad I Have Come Back
TTITLE2=Simple Love
TTITLE3=Ninja
TTITLE4=Cannot Speak
TTITLE5=Shanghai 1943
TTITLE6=Sorry
TTITLE7=William's Castle
TTITLE8=Nun-Chuks
TTITLE9=Silence
EXTD=YEAR: 2000
EXTT0=
EXTT1=
EXTT2=
EXTT3=
EXTT4=
EXTT5=
EXTT6=
EXTT7=
EXTT8=
EXTT9=
PLAYORDER=
